<svg version="1.1" id="Layer_1" xmlns="http://www.w3.org/2000/svg" xmlns:xlink="http://www.w3.org/1999/xlink" x="0px" y="0px"
	 width="100%" viewBox="0 0 392 405" enable-background="new 0 0 392 405" xml:space="preserve">
<path fill="#FDFEFE" opacity="1.000000" stroke="none" 
	d="
M227.000000,406.000000 
	C151.356903,406.000000 76.213814,406.000000 1.035363,406.000000 
	C1.035363,271.065918 1.035363,136.131836 1.035363,1.098875 
	C131.559692,1.098875 262.119507,1.098875 392.839661,1.098875 
	C392.839661,135.999847 392.839661,270.999908 392.839661,406.000000 
	C337.798584,406.000000 282.649292,406.000000 227.000000,406.000000 
M162.337051,201.099106 
	C161.958527,201.402374 161.580017,201.705658 160.866714,202.891998 
	C160.866714,227.219574 160.866714,251.547150 160.866714,276.137817 
	C162.489212,276.137817 163.751785,276.137817 165.920151,276.396606 
	C192.571655,276.368347 219.223801,276.431610 245.874191,276.244537 
	C252.173584,276.200317 258.576477,275.889771 264.744354,274.716522 
	C291.594940,269.609100 314.526855,257.462250 332.667969,235.765656 
	C336.609833,230.215530 341.012695,224.933441 344.419983,219.072540 
	C369.720306,175.553406 363.819977,118.855911 329.918884,81.652107 
	C313.212646,63.318306 292.689941,51.316017 267.557220,46.719318 
	C267.024506,46.710239 266.491760,46.701160 265.243195,46.291611 
	C264.156006,46.214264 263.068817,46.136917 261.439850,45.740643 
	C260.614288,45.764343 259.788757,45.788044 258.193634,45.476948 
	C256.803253,45.439339 255.412903,45.401730 253.127396,45.054279 
	C245.413742,45.107082 237.700089,45.159885 229.072906,44.997402 
	C207.365524,45.049965 185.658127,45.102528 163.534821,44.842159 
	C162.707779,44.946545 161.880737,45.050934 160.130829,44.941147 
	C151.328293,44.927982 142.525620,44.877293 133.723251,44.909485 
	C115.462250,44.976261 97.201416,45.087036 78.227219,44.825172 
	C62.348930,44.825172 46.470638,44.825172 29.669321,44.825172 
	C30.850651,46.086163 31.368132,46.638535 32.108902,47.823170 
	C37.070202,54.074585 41.594318,60.747704 47.109261,66.465080 
	C53.275562,72.857727 56.233025,79.693985 55.396584,88.695045 
	C54.691189,96.285957 55.272606,103.996346 55.282425,111.653854 
	C55.285759,114.253067 55.282951,116.852280 55.282951,119.864449 
	C57.709385,119.864449 59.344170,119.863213 60.978951,119.864639 
	C81.620972,119.882683 102.262985,119.917862 122.905006,119.915901 
	C163.523224,119.912048 204.141510,119.835297 244.759613,119.894913 
	C263.616821,119.922592 277.442291,129.314316 283.485138,146.450974 
	C287.921326,159.031433 286.621185,171.324799 279.620514,183.463013 
	C271.314941,195.474396 259.847778,201.119354 245.262421,201.031036 
	C221.482300,200.887039 197.700684,200.966019 173.919769,201.006393 
	C170.288849,201.012558 166.658401,201.316299 162.902451,201.535599 
	C162.902451,201.535599 162.768311,201.512527 162.337051,201.099106 
M68.927223,371.382355 
	C74.270241,371.294128 79.613266,371.205902 85.880890,371.325195 
	C92.936722,371.253052 99.992554,371.180939 107.941681,371.351501 
	C111.955719,371.265991 115.969749,371.180481 120.859558,371.288696 
	C123.241844,371.202087 125.624123,371.115479 128.832092,371.026062 
	C129.085754,369.455994 129.562210,367.885773 129.561050,366.315887 
	C129.509460,296.330048 129.417084,226.344254 129.318970,156.358475 
	C129.316910,154.891937 129.190735,153.425552 129.115707,151.814041 
	C104.413773,151.814041 80.032257,151.814041 55.536766,151.814041 
	C55.433296,153.221695 55.297897,154.202774 55.298088,155.183823 
	C55.311584,225.170319 55.333614,295.156830 55.376694,365.143311 
	C55.377499,366.451447 55.638634,367.759460 55.598175,369.988892 
	C59.739738,370.370422 63.881302,370.751953 68.927223,371.382355 
z"/>
<path fill="#2E3895" opacity="1.000000" stroke="none" 
	d="
M163.950745,45.155090 
	C185.658127,45.102528 207.365524,45.049965 229.645386,45.480637 
	C237.895874,46.181057 245.573654,46.410172 253.252960,46.561939 
	C253.501511,46.566853 253.765671,45.781231 254.022537,45.364120 
	C255.412903,45.401730 256.803253,45.439339 258.699280,45.890274 
	C260.130493,46.222260 261.056061,46.140915 261.981628,46.059574 
	C263.068817,46.136917 264.156006,46.214264 265.676331,46.725334 
	C266.732086,47.130264 267.354706,47.101467 267.977356,47.072670 
	C292.689941,51.316017 313.212646,63.318306 329.918884,81.652107 
	C363.819977,118.855911 369.720306,175.553406 344.419983,219.072540 
	C341.012695,224.933441 336.609833,230.215530 332.332642,235.527374 
	C330.969147,233.668457 330.192413,231.799133 328.873657,230.466019 
	C316.839935,218.301514 304.766144,206.175293 292.580353,194.163406 
	C288.621033,190.260590 284.296814,186.727951 280.139496,183.025986 
	C286.621185,171.324799 287.921326,159.031433 283.485138,146.450974 
	C277.442291,129.314316 263.616821,119.922592 244.759613,119.894913 
	C204.141510,119.835297 163.523224,119.912048 122.905006,119.915901 
	C102.262985,119.917862 81.620972,119.882683 60.978951,119.864639 
	C59.344170,119.863213 57.709385,119.864449 55.282951,119.864449 
	C55.282951,116.852280 55.285759,114.253067 55.282425,111.653854 
	C55.272606,103.996346 54.691189,96.285957 55.396584,88.695045 
	C56.233025,79.693985 53.275562,72.857727 47.109261,66.465080 
	C41.594318,60.747704 37.070202,54.074585 32.278507,47.179665 
	C39.817486,46.580605 47.193317,46.837063 54.554497,46.612701 
	C62.690170,46.364738 70.812416,45.676311 78.940514,45.179726 
	C97.201416,45.087036 115.462250,44.976261 133.723251,44.909485 
	C142.525620,44.877293 151.328293,44.927982 160.772217,45.276474 
	C162.259308,45.459568 163.105026,45.307331 163.950745,45.155090 
z"/>
<path fill="#33197B" opacity="1.000000" stroke="none" 
	d="
M119.983788,371.094971 
	C115.969749,371.180481 111.955719,371.265991 107.213242,370.911591 
	C99.308632,370.687012 92.132462,370.902313 84.956284,371.117676 
	C79.613266,371.205902 74.270241,371.294128 68.394257,370.852448 
	C63.833633,369.904205 59.805973,369.485870 55.778305,369.067535 
	C55.638634,367.759460 55.377499,366.451447 55.376694,365.143311 
	C55.333614,295.156830 55.311584,225.170319 55.298088,155.183823 
	C55.297897,154.202774 55.433296,153.221695 55.536766,151.814041 
	C80.032257,151.814041 104.413773,151.814041 129.115707,151.814041 
	C129.190735,153.425552 129.316910,154.891937 129.318970,156.358475 
	C129.417084,226.344254 129.509460,296.330048 129.561050,366.315887 
	C129.562210,367.885773 129.085754,369.455994 128.337234,370.644348 
	C125.000145,368.437378 122.262726,367.601746 119.983788,371.094971 
z"/>
<path fill="#31197B" opacity="1.000000" stroke="none" 
	d="
M279.880005,183.244507 
	C284.296814,186.727951 288.621033,190.260590 292.580353,194.163406 
	C304.766144,206.175293 316.839935,218.301514 328.873657,230.466019 
	C330.192413,231.799133 330.969147,233.668457 332.022003,235.653656 
	C314.526855,257.462250 291.594940,269.609100 264.744354,274.716522 
	C258.576477,275.889771 252.173584,276.200317 245.874191,276.244537 
	C219.223801,276.431610 192.571655,276.368347 165.401855,275.876465 
	C164.255768,273.216125 163.094177,271.078888 163.082367,268.935303 
	C162.958450,246.451584 163.018539,223.966858 163.027740,201.482407 
	C166.658401,201.316299 170.288849,201.012558 173.919769,201.006393 
	C197.700684,200.966019 221.482300,200.887039 245.262421,201.031036 
	C259.847778,201.119354 271.314941,195.474396 279.880005,183.244507 
z"/>
<path fill="#2A1070" opacity="1.000000" stroke="none" 
	d="
M162.965088,201.509003 
	C163.018539,223.966858 162.958450,246.451584 163.082367,268.935303 
	C163.094177,271.078888 164.255768,273.216125 164.948975,275.747070 
	C163.751785,276.137817 162.489212,276.137817 160.866714,276.137817 
	C160.866714,251.547150 160.866714,227.219574 161.439728,202.370300 
	C162.264603,201.736572 162.516464,201.624542 162.768311,201.512527 
	C162.768311,201.512527 162.902451,201.535599 162.965088,201.509003 
z"/>
<path fill="#3D469C" opacity="1.000000" stroke="none" 
	d="
M78.583862,45.002449 
	C70.812416,45.676311 62.690170,46.364738 54.554497,46.612701 
	C47.193317,46.837063 39.817486,46.580605 32.166862,46.863533 
	C31.368132,46.638535 30.850651,46.086163 29.669321,44.825172 
	C46.470638,44.825172 62.348930,44.825172 78.583862,45.002449 
z"/>
<path fill="#3D469C" opacity="1.000000" stroke="none" 
	d="
M253.574966,45.209198 
	C253.765671,45.781231 253.501511,46.566853 253.252960,46.561939 
	C245.573654,46.410172 237.895874,46.181057 230.102142,45.588280 
	C237.700089,45.159885 245.413742,45.107082 253.574966,45.209198 
z"/>
<path fill="#240F6C" opacity="1.000000" stroke="none" 
	d="
M55.688240,369.528198 
	C59.805973,369.485870 63.833633,369.904205 67.942078,370.727997 
	C63.881302,370.751953 59.739738,370.370422 55.688240,369.528198 
z"/>
<path fill="#240F6C" opacity="1.000000" stroke="none" 
	d="
M85.418587,371.221436 
	C92.132462,370.902313 99.308632,370.687012 106.766602,370.790222 
	C99.992554,371.180939 92.936722,371.253052 85.418587,371.221436 
z"/>
<path fill="#240F6C" opacity="1.000000" stroke="none" 
	d="
M120.421677,371.191833 
	C122.262726,367.601746 125.000145,368.437378 127.924393,370.645752 
	C125.624123,371.115479 123.241844,371.202087 120.421677,371.191833 
z"/>
<path fill="#3D469C" opacity="1.000000" stroke="none" 
	d="
M163.742783,44.998627 
	C163.105026,45.307331 162.259308,45.459568 161.233643,45.383560 
	C161.880737,45.050934 162.707779,44.946545 163.742783,44.998627 
z"/>
<path fill="#3D469C" opacity="1.000000" stroke="none" 
	d="
M261.710754,45.900108 
	C261.056061,46.140915 260.130493,46.222260 259.084045,46.057671 
	C259.788757,45.788044 260.614288,45.764343 261.710754,45.900108 
z"/>
<path fill="#3D469C" opacity="1.000000" stroke="none" 
	d="
M267.767273,46.895996 
	C267.354706,47.101467 266.732086,47.130264 266.034241,46.925571 
	C266.491760,46.701160 267.024506,46.710239 267.767273,46.895996 
z"/>
<path fill="#31197B" opacity="1.000000" stroke="none" 
	d="
M162.552673,201.305817 
	C162.516464,201.624542 162.264603,201.736572 161.607117,201.928757 
	C161.580017,201.705658 161.958527,201.402374 162.552673,201.305817 
z"/>
</svg>