<svg version="1.1" id="Layer_1" xmlns="http://www.w3.org/2000/svg" xmlns:xlink="http://www.w3.org/1999/xlink" x="0px" y="0px"
	 width="100%" viewBox="0 0 588 607" enable-background="new 0 0 588 607" xml:space="preserve">
<path fill="#000000" opacity="1.000000" stroke="none" 
	d="
M589.000000,222.000000 
	C589.000000,351.000000 589.000000,479.500000 589.000000,608.000000 
	C393.000000,608.000000 197.000000,608.000000 1.000000,608.000000 
	C1.000000,405.666656 1.000000,203.333328 1.000000,1.000000 
	C197.000000,1.000000 393.000000,1.000000 589.000000,1.000000 
	C589.000000,74.500000 589.000000,148.000000 589.000000,222.000000 
M398.027069,189.567398 
	C398.337189,189.736649 398.647278,189.905899 398.984650,190.019989 
	C398.984650,190.019989 398.953125,190.082977 399.406097,190.584122 
	C412.717133,198.268600 420.963623,210.609955 424.481323,224.598724 
	C428.718567,241.448776 426.762085,258.639740 416.485840,274.448151 
	C408.364349,285.303101 398.116272,293.195770 384.135132,297.050415 
	C379.810516,297.711914 375.489594,298.915680 371.160645,298.945465 
	C346.224213,299.117340 321.285400,299.103333 296.348480,298.958771 
	C284.789368,298.891754 273.234131,298.236420 261.674622,298.136536 
	C254.573395,298.075226 247.467422,298.560181 239.757599,299.340668 
	C239.304367,301.594330 238.452042,303.849915 238.463120,306.101288 
	C238.531281,319.970215 238.886307,333.837616 238.969345,347.706604 
	C239.074905,365.340607 239.050735,382.975769 238.983322,400.610046 
	C238.972672,403.395111 238.439697,406.178223 238.051086,409.752594 
	C238.063019,414.981232 240.593979,416.880066 245.867355,416.844086 
	C267.974457,416.693176 290.098572,417.412079 312.188568,416.802002 
	C339.334320,416.052307 366.546326,418.986877 393.660004,414.292664 
	C406.541809,412.062408 418.918579,408.831696 431.739319,403.940369 
	C441.400879,399.112762 451.363983,394.793549 460.629608,389.298309 
	C468.177124,384.822052 475.292053,379.389740 481.853577,373.544769 
	C487.775818,368.269318 492.687622,361.859528 498.698181,355.799103 
	C501.062347,353.201172 503.426483,350.603241 506.100830,347.379608 
	C509.903992,341.811249 514.028137,336.430511 517.422668,330.623260 
	C521.016968,324.474365 524.551514,318.150696 526.976562,311.489929 
	C530.897583,300.720398 534.341064,289.726013 537.131592,278.612000 
	C539.365051,269.716400 541.140991,260.549988 541.681580,251.418579 
	C542.722778,233.829712 540.846558,216.351944 536.646423,199.210297 
	C534.659912,191.102921 532.865662,182.828262 529.697632,175.161072 
	C525.760620,165.632935 520.768616,156.500778 515.735046,147.474899 
	C507.892883,133.412857 498.114990,120.635750 485.896332,110.207130 
	C475.992249,101.754036 465.335052,93.997704 454.244324,87.181175 
	C445.838409,82.014748 436.274292,78.696541 427.126495,74.787735 
	C422.167450,72.668777 417.001190,71.034805 411.093079,69.048073 
	C398.499176,67.724297 385.913025,65.349609 373.310028,65.256546 
	C315.180176,64.827347 257.045654,65.013405 198.912781,65.020744 
	C170.266327,65.024361 141.619858,65.118752 112.040924,65.092239 
	C90.370499,64.790253 68.700081,64.488258 46.321022,64.113869 
	C45.136765,65.428108 42.710533,67.531891 42.964710,67.931717 
	C45.001228,71.135254 47.544209,74.016830 49.917641,77.062958 
	C49.917641,77.062958 49.984734,77.071266 50.096184,77.760933 
	C55.174126,84.580887 60.041168,91.572609 65.405441,98.159378 
	C68.881485,102.427597 73.083900,106.104263 77.041168,110.746216 
	C78.093651,112.483490 79.146141,114.220772 80.080505,116.895210 
	C80.062088,134.716034 80.009872,152.536896 80.037292,170.357651 
	C80.055214,182.007004 80.107025,181.975983 91.805992,182.014175 
	C189.861786,182.334320 287.917542,182.666718 385.969055,183.044983 
	C385.969055,183.044983 386.012756,183.021194 386.246582,183.692459 
	C390.137299,185.520233 394.028015,187.348007 397.954620,189.078384 
	C397.954620,189.078384 397.857208,189.042526 398.027069,189.567398 
M170.892151,557.949158 
	C177.482025,557.959229 184.073196,558.055054 190.661362,557.953552 
	C196.438354,557.864624 197.673096,555.989807 196.014099,549.218079 
	C196.252625,544.438293 196.491165,539.658447 196.889145,533.971313 
	C196.921127,526.568237 197.034592,519.164185 196.947266,511.762573 
	C196.909317,508.546814 196.458496,505.335999 196.095657,501.608276 
	C196.093704,501.433533 196.091751,501.258820 196.667068,500.453796 
	C196.418457,488.098602 196.019791,475.744171 195.953964,463.388000 
	C195.834305,440.927826 195.912445,418.466583 195.706055,395.303741 
	C195.798859,393.547607 195.972397,391.791504 195.972107,390.035370 
	C195.968948,370.284302 195.939072,350.533264 195.938217,329.884583 
	C195.911087,318.939880 195.883957,307.995148 195.945496,296.138000 
	C195.572937,273.780762 195.200378,251.423523 194.915009,228.262238 
	C195.150925,223.910538 192.038498,224.092133 189.165878,224.088531 
	C174.878616,224.070572 160.591293,224.104355 146.304016,224.094009 
	C126.368820,224.079575 106.433640,224.021851 86.498459,224.026871 
	C80.492165,224.028381 80.009094,224.554886 80.035194,230.619888 
	C80.060196,236.429825 80.164299,242.239395 80.160805,248.977722 
	C80.115013,291.756409 80.038437,334.535065 80.031021,377.313751 
	C80.021126,434.407990 80.029663,491.502380 80.206078,548.596130 
	C80.213676,551.054443 81.982262,553.507202 83.394791,556.511475 
	C85.560143,557.283081 87.727768,558.723633 89.890480,558.716248 
	C102.597252,558.673218 115.301788,558.201599 128.009171,558.049744 
	C141.988907,557.882751 155.970932,557.905273 170.892151,557.949158 
z"/>
<path fill="#2D3695" opacity="1.000000" stroke="none" 
	d="
M80.198631,115.958046 
	C79.146141,114.220772 78.093651,112.483490 76.954971,110.060913 
	C76.733826,104.941277 74.408707,101.945747 71.171127,99.007729 
	C66.643921,94.899368 62.797123,90.048340 58.568520,85.601303 
	C55.790012,82.679268 52.851559,79.909317 49.984734,77.071266 
	C49.984734,77.071266 49.917641,77.062958 49.997299,76.637299 
	C50.379478,73.797310 50.682003,71.382973 51.350288,68.907974 
	C69.081139,68.562256 86.447083,68.318230 103.810516,67.954239 
	C106.925064,67.888954 110.029243,67.328430 113.552155,66.988098 
	C116.356308,67.272430 118.746521,67.565224 121.389648,68.129021 
	C123.847137,68.928535 126.051277,69.917046 128.256317,69.919044 
	C205.845978,69.989395 283.435730,69.967094 361.492493,69.957291 
	C368.773376,69.949745 375.591339,70.082047 382.399200,69.877396 
	C385.836884,69.774071 389.292206,68.516098 392.676056,68.740013 
	C399.110657,69.165787 405.499634,70.281204 412.124664,71.368889 
	C419.490021,74.676659 426.665283,77.664986 433.766327,80.820320 
	C435.411194,81.551186 436.719666,83.007675 438.324646,83.864929 
	C446.950470,88.472183 455.701111,92.852684 464.231018,97.628677 
	C467.064484,99.215157 469.260681,101.897987 471.943054,103.805573 
	C476.364502,106.949860 482.768646,108.672958 479.752716,115.986755 
	C481.893738,116.556221 484.052368,116.484657 485.152313,117.528580 
	C491.897217,123.930138 498.826965,130.222458 504.840851,137.279205 
	C508.962463,142.115555 511.864899,148.040054 514.990234,153.657303 
	C516.791992,156.895569 518.053833,160.452454 519.361328,163.939926 
	C520.050903,165.779282 519.757568,168.220398 520.871460,169.626816 
	C525.558655,175.544968 527.239319,182.565887 529.633667,189.500198 
	C533.953186,202.009979 535.531738,214.737167 535.117310,227.779526 
	C534.576416,244.803116 535.615173,261.846161 533.305298,278.867065 
	C532.125488,287.560699 529.289062,295.301056 525.311523,302.873138 
	C521.995422,309.186157 517.214539,315.271484 516.007812,321.983582 
	C514.998962,327.594727 512.681152,331.665802 509.822113,336.038696 
	C507.312958,339.876404 505.236786,343.997223 502.656128,348.116760 
	C500.906708,348.918213 499.470581,349.595947 497.745361,350.089447 
	C495.603699,347.931335 493.751160,345.957428 491.775269,343.676300 
	C488.128601,340.271851 484.605316,337.174652 480.898926,333.817108 
	C480.097076,332.694916 479.478333,331.833069 478.679321,330.750366 
	C477.701660,330.028168 476.904358,329.526794 476.075256,328.991821 
	C476.043488,328.958221 475.977264,328.893646 475.894440,328.561066 
	C474.180359,324.484344 472.661469,320.684418 470.848175,317.030609 
	C470.316071,315.958405 469.083710,314.955139 467.942108,314.508362 
	C459.244995,311.104858 453.389740,304.220642 447.031097,297.892212 
	C443.883301,294.759369 440.337585,292.026367 436.722412,289.070679 
	C436.306824,288.999725 436.140747,288.970551 435.842285,288.636932 
	C432.725006,285.008240 429.710236,281.710114 426.770844,278.346130 
	C425.698700,277.119080 423.848053,275.620361 423.989471,274.442047 
	C424.798828,267.698456 423.197968,260.497742 428.525879,254.557571 
	C432.203552,250.457306 432.172943,244.947083 432.352173,238.557068 
	C430.611145,240.205475 429.736206,241.033890 428.472992,242.229904 
	C426.984039,234.363358 430.085815,226.920639 426.239960,219.754639 
	C422.287537,212.389908 421.260559,203.384216 413.444214,198.288757 
	C412.218781,197.489899 411.186981,196.319778 410.245239,195.173752 
	C407.304565,191.595200 403.698212,189.605362 398.953125,190.082977 
	C398.953125,190.082977 398.984650,190.019989 398.792114,189.871597 
	C398.352142,189.496323 398.104675,189.269424 397.857208,189.042526 
	C397.857208,189.042526 397.954620,189.078384 397.796204,188.809982 
	C394.844391,184.423767 390.719971,183.108856 386.012756,183.021194 
	C386.012756,183.021194 385.969055,183.044983 385.821411,182.707733 
	C383.583282,181.367996 381.511200,179.555786 379.398987,179.507721 
	C371.593719,179.330139 363.775177,179.735474 355.682617,179.685822 
	C353.176361,178.970108 350.949677,178.074081 348.721832,178.071213 
	C290.850555,177.996567 232.979065,177.992920 175.107834,178.095840 
	C172.767029,178.100006 170.428299,179.262421 167.723892,179.882370 
	C166.872925,179.876785 166.386673,179.874023 165.665436,179.655640 
	C163.316437,179.587509 161.202408,179.735001 158.614304,179.893738 
	C135.846115,179.932693 113.551918,180.006378 91.257980,179.959229 
	C84.807983,179.945602 82.206909,177.336548 82.316986,171.326492 
	C82.621460,154.702499 83.090248,138.080276 83.190529,121.455513 
	C83.201546,119.629105 81.243439,117.790825 80.198631,115.958046 
z"/>
<path fill="#30187A" opacity="1.000000" stroke="none" 
	d="
M491.898621,343.983551 
	C493.751160,345.957428 495.603699,347.931335 497.785706,350.398193 
	C498.091797,352.577454 498.068420,354.263733 498.045044,355.950012 
	C492.687622,361.859528 487.775818,368.269318 481.853577,373.544769 
	C475.292053,379.389740 468.177124,384.822052 460.629608,389.298309 
	C451.363983,394.793549 441.400879,399.112762 430.991028,403.826447 
	C427.035187,404.134979 423.748413,404.248413 420.637054,405.046082 
	C414.699158,406.568451 408.960022,409.277740 402.955872,410.021912 
	C396.047150,410.878174 388.939209,410.022949 381.920532,410.117065 
	C363.618347,410.362366 345.317535,410.711243 327.016571,411.042145 
	C324.022064,411.096283 321.030701,411.307465 318.036255,411.380402 
	C306.411865,411.663635 294.770142,411.619263 283.166168,412.261658 
	C267.985657,413.102051 252.982483,412.414948 238.148224,408.962219 
	C238.439697,406.178223 238.972672,403.395111 238.983322,400.610046 
	C239.050735,382.975769 239.074905,365.340607 238.969345,347.706604 
	C238.886307,333.837616 238.531281,319.970215 238.463120,306.101288 
	C238.452042,303.849915 239.304367,301.594330 240.231354,299.382080 
	C244.552948,303.863281 249.912521,302.748840 254.683197,302.773926 
	C286.617859,302.941986 318.555756,303.031281 350.488678,302.728058 
	C363.367584,302.605804 376.488861,303.935699 389.315430,298.921875 
	C390.353333,298.788788 391.159393,298.892883 391.635132,298.545074 
	C400.740784,291.888123 412.524994,289.035919 419.315521,279.064087 
	C419.937561,278.150635 421.079193,277.590973 422.248413,277.073273 
	C427.003052,281.166840 431.488831,285.054138 435.974640,288.941406 
	C436.140747,288.970551 436.306824,288.999725 436.809631,289.401428 
	C437.977600,291.193573 438.543396,292.886719 439.681030,293.990540 
	C451.727478,305.678833 463.864868,317.273346 475.977264,328.893646 
	C475.977264,328.893646 476.043488,328.958221 476.270660,329.195801 
	C477.285095,329.945984 478.072357,330.458588 478.859619,330.971222 
	C479.478333,331.833069 480.097076,332.694916 481.021851,334.119263 
	C484.851501,337.782379 488.375061,340.882965 491.898621,343.983551 
z"/>
<path fill="#282E7F" opacity="1.000000" stroke="none" 
	d="
M502.969421,347.993011 
	C505.236786,343.997223 507.312958,339.876404 509.822113,336.038696 
	C512.681152,331.665802 514.998962,327.594727 516.007812,321.983582 
	C517.214539,315.271484 521.995422,309.186157 525.311523,302.873138 
	C529.289062,295.301056 532.125488,287.560699 533.305298,278.867065 
	C535.615173,261.846161 534.576416,244.803116 535.117310,227.779526 
	C535.531738,214.737167 533.953186,202.009979 529.633667,189.500198 
	C527.239319,182.565887 525.558655,175.544968 520.871460,169.626816 
	C519.757568,168.220398 520.050903,165.779282 519.361328,163.939926 
	C518.053833,160.452454 516.791992,156.895569 514.990234,153.657303 
	C511.864899,148.040054 508.962463,142.115555 504.840851,137.279205 
	C498.826965,130.222458 491.897217,123.930138 485.152313,117.528580 
	C484.052368,116.484657 481.893738,116.556221 479.752716,115.986755 
	C482.768646,108.672958 476.364502,106.949860 471.943054,103.805573 
	C469.260681,101.897987 467.064484,99.215157 464.231018,97.628677 
	C455.701111,92.852684 446.950470,88.472183 438.324646,83.864929 
	C436.719666,83.007675 435.411194,81.551186 433.766327,80.820320 
	C426.665283,77.664986 419.490021,74.676659 412.133423,71.046654 
	C411.926208,70.037865 411.927307,69.609962 411.928406,69.182068 
	C417.001190,71.034805 422.167450,72.668777 427.126495,74.787735 
	C436.274292,78.696541 445.838409,82.014748 454.244324,87.181175 
	C465.335052,93.997704 475.992249,101.754036 485.896332,110.207130 
	C498.114990,120.635750 507.892883,133.412857 515.735046,147.474899 
	C520.768616,156.500778 525.760620,165.632935 529.697632,175.161072 
	C532.865662,182.828262 534.659912,191.102921 536.646423,199.210297 
	C540.846558,216.351944 542.722778,233.829712 541.681580,251.418579 
	C541.140991,260.549988 539.365051,269.716400 537.131592,278.612000 
	C534.341064,289.726013 530.897583,300.720398 526.976562,311.489929 
	C524.551514,318.150696 521.016968,324.474365 517.422668,330.623260 
	C514.028137,336.430511 509.903992,341.811249 505.593414,347.691223 
	C504.380463,347.999542 503.674957,347.996277 502.969421,347.993011 
z"/>
<path fill="#291965" opacity="1.000000" stroke="none" 
	d="
M238.099670,409.357422 
	C252.982483,412.414948 267.985657,413.102051 283.166168,412.261658 
	C294.770142,411.619263 306.411865,411.663635 318.036255,411.380402 
	C321.030701,411.307465 324.022064,411.096283 327.016571,411.042145 
	C345.317535,410.711243 363.618347,410.362366 381.920532,410.117065 
	C388.939209,410.022949 396.047150,410.878174 402.955872,410.021912 
	C408.960022,409.277740 414.699158,406.568451 420.637054,405.046082 
	C423.748413,404.248413 427.035187,404.134979 430.601074,403.839478 
	C418.918579,408.831696 406.541809,412.062408 393.660004,414.292664 
	C366.546326,418.986877 339.334320,416.052307 312.188568,416.802002 
	C290.098572,417.412079 267.974457,416.693176 245.867355,416.844086 
	C240.593979,416.880066 238.063019,414.981232 238.099670,409.357422 
z"/>
<path fill="#3D2C74" opacity="1.000000" stroke="none" 
	d="
M82.930527,555.962585 
	C81.982262,553.507202 80.213676,551.054443 80.206078,548.596130 
	C80.029663,491.502380 80.021126,434.407990 80.031021,377.313751 
	C80.038437,334.535065 80.115013,291.756409 80.533005,248.505646 
	C81.576706,248.014572 82.248192,247.995590 82.932861,248.448120 
	C83.111938,314.144653 83.358322,379.369659 83.411995,444.594788 
	C83.441704,480.699585 83.148872,516.804688 82.985611,553.291504 
	C82.956703,554.436523 82.943611,555.199524 82.930527,555.962585 
z"/>
<path fill="#31397D" opacity="1.000000" stroke="none" 
	d="
M80.139572,116.426628 
	C81.243439,117.790825 83.201546,119.629105 83.190529,121.455513 
	C83.090248,138.080276 82.621460,154.702499 82.316986,171.326492 
	C82.206909,177.336548 84.807983,179.945602 91.257980,179.959229 
	C113.551918,180.006378 135.846115,179.932693 159.037933,179.907959 
	C161.923920,179.897705 163.912155,179.884476 165.900406,179.871262 
	C166.386673,179.874023 166.872925,179.876785 168.181595,179.899170 
	C231.323212,179.919754 293.642426,179.920731 355.961639,179.921707 
	C363.775177,179.735474 371.593719,179.330139 379.398987,179.507721 
	C381.511200,179.555786 383.583282,181.367996 385.823547,182.682938 
	C287.917542,182.666718 189.861786,182.334320 91.805992,182.014175 
	C80.107025,181.975983 80.055214,182.007004 80.037292,170.357651 
	C80.009872,152.536896 80.062088,134.716034 80.139572,116.426628 
z"/>
<path fill="#2C337A" opacity="1.000000" stroke="none" 
	d="
M411.510742,69.115067 
	C411.927307,69.609962 411.926208,70.037865 411.916321,70.787994 
	C405.499634,70.281204 399.110657,69.165787 392.676056,68.740013 
	C389.292206,68.516098 385.836884,69.774071 382.399200,69.877396 
	C375.591339,70.082047 368.773376,69.949745 361.207916,69.716125 
	C358.396790,68.984680 356.343719,68.096428 354.276886,68.063255 
	C327.823578,67.638687 301.367981,67.034294 274.913666,67.067619 
	C223.654434,67.132195 172.395676,67.573082 121.136726,67.858025 
	C118.746521,67.565224 116.356308,67.272430 113.516212,66.684608 
	C113.035347,65.983742 113.004372,65.577896 112.973396,65.172058 
	C141.619858,65.118752 170.266327,65.024361 198.912781,65.020744 
	C257.045654,65.013405 315.180176,64.827347 373.310028,65.256546 
	C385.913025,65.349609 398.499176,67.724297 411.510742,69.115067 
z"/>
<path fill="#36207D" opacity="1.000000" stroke="none" 
	d="
M194.827820,229.066284 
	C195.200378,251.423523 195.572937,273.780762 195.773529,296.981506 
	C195.706512,308.810730 195.811447,319.796448 195.916382,330.782196 
	C195.939072,350.533264 195.968948,370.284302 195.972107,390.035370 
	C195.972397,391.791504 195.798859,393.547607 195.688156,396.047485 
	C195.381485,408.532196 195.092728,420.273132 194.455383,432.013000 
	C193.409683,432.010498 192.712540,432.009033 192.011108,431.538055 
	C192.002686,368.865051 192.017670,306.661530 191.954376,244.458115 
	C191.949814,239.986252 191.373337,235.514969 191.300323,230.846939 
	C192.634521,230.122406 193.731171,229.594345 194.827820,229.066284 
z"/>
<path fill="#43318B" opacity="1.000000" stroke="none" 
	d="
M388.929840,298.948669 
	C376.488861,303.935699 363.367584,302.605804 350.488678,302.728058 
	C318.555756,303.031281 286.617859,302.941986 254.683197,302.773926 
	C249.912521,302.748840 244.552948,303.863281 240.534348,299.111664 
	C247.467422,298.560181 254.573395,298.075226 261.674622,298.136536 
	C273.234131,298.236420 284.789368,298.891754 296.348480,298.958771 
	C321.285400,299.103333 346.224213,299.117340 371.160645,298.945465 
	C375.489594,298.915680 379.810516,297.711914 384.798584,297.151855 
	C386.618011,297.818390 387.773926,298.383514 388.929840,298.948669 
z"/>
<path fill="#321F67" opacity="1.000000" stroke="none" 
	d="
M194.871414,228.664276 
	C193.731171,229.594345 192.634521,230.122406 190.883026,230.829681 
	C186.543854,230.118378 182.895309,228.687469 179.168304,228.440445 
	C168.743576,227.749512 158.288971,227.321518 147.841461,227.202621 
	C128.540024,226.982910 109.235146,227.079819 89.931969,226.988113 
	C86.644455,226.972488 84.401764,228.000916 84.129036,231.616684 
	C83.717751,237.069366 83.322021,242.523239 82.919685,247.976608 
	C82.248192,247.995590 81.576706,248.014572 80.569420,248.041351 
	C80.164299,242.239395 80.060196,236.429825 80.035194,230.619888 
	C80.009094,224.554886 80.492165,224.028381 86.498459,224.026871 
	C106.433640,224.021851 126.368820,224.079575 146.304016,224.094009 
	C160.591293,224.104355 174.878616,224.070572 189.165878,224.088531 
	C192.038498,224.092133 195.150925,223.910538 194.871414,228.664276 
z"/>
<path fill="#38257E" opacity="1.000000" stroke="none" 
	d="
M192.015396,432.007568 
	C192.712540,432.009033 193.409683,432.010498 194.478958,432.479980 
	C194.909744,452.545868 194.923233,472.144073 195.073349,491.741241 
	C195.097214,494.857941 195.735550,497.969971 196.089798,501.084137 
	C196.091751,501.258820 196.093704,501.433533 196.069489,502.075165 
	C196.043320,502.542053 195.893311,502.961670 195.770691,503.357788 
	C195.719162,509.465668 195.790222,515.177429 195.889252,521.356567 
	C196.188049,526.175537 196.458878,530.527100 196.729706,534.878662 
	C196.491165,539.658447 196.252625,544.438293 195.976227,549.949219 
	C194.950455,551.751526 193.962540,552.822754 192.887146,553.496765 
	C192.532074,549.962341 192.035797,546.825317 192.031738,543.687683 
	C191.983780,506.461060 192.009216,469.234283 192.015396,432.007568 
z"/>
<path fill="#2C307E" opacity="1.000000" stroke="none" 
	d="
M435.842285,288.636932 
	C431.488831,285.054138 427.003052,281.166840 422.099121,276.784363 
	C420.111908,275.524963 418.542816,274.760742 416.973755,273.996490 
	C426.762085,258.639740 428.718567,241.448776 424.481323,224.598724 
	C420.963623,210.609955 412.717133,198.268600 399.179626,190.333557 
	C403.698212,189.605362 407.304565,191.595200 410.245239,195.173752 
	C411.186981,196.319778 412.218781,197.489899 413.444214,198.288757 
	C421.260559,203.384216 422.287537,212.389908 426.239960,219.754639 
	C430.085815,226.920639 426.984039,234.363358 428.472992,242.229904 
	C429.736206,241.033890 430.611145,240.205475 432.352173,238.557068 
	C432.172943,244.947083 432.203552,250.457306 428.525879,254.557571 
	C423.197968,260.497742 424.798828,267.698456 423.989471,274.442047 
	C423.848053,275.620361 425.698700,277.119080 426.770844,278.346130 
	C429.710236,281.710114 432.725006,285.008240 435.842285,288.636932 
z"/>
<path fill="#26146A" opacity="1.000000" stroke="none" 
	d="
M83.162659,556.237061 
	C82.943611,555.199524 82.956703,554.436523 83.421448,553.316833 
	C92.334679,553.300598 100.794243,553.859192 109.258247,553.937744 
	C129.539902,554.125977 149.823639,554.088501 170.095398,554.512573 
	C170.040176,555.870483 169.996063,556.857849 169.951950,557.845276 
	C155.970932,557.905273 141.988907,557.882751 128.009171,558.049744 
	C115.301788,558.201599 102.597252,558.673218 89.890480,558.716248 
	C87.727768,558.723633 85.560143,557.283081 83.162659,556.237061 
z"/>
<path fill="#384297" opacity="1.000000" stroke="none" 
	d="
M112.507156,65.132149 
	C113.004372,65.577896 113.035347,65.983742 113.102264,66.693069 
	C110.029243,67.328430 106.925064,67.888954 103.810516,67.954239 
	C86.447083,68.318230 69.081139,68.562256 51.037369,68.807434 
	C48.166817,68.026855 45.896652,67.343025 47.029659,64.186264 
	C68.700081,64.488258 90.370499,64.790253 112.507156,65.132149 
z"/>
<path fill="#30216F" opacity="1.000000" stroke="none" 
	d="
M416.729797,274.222321 
	C418.542816,274.760742 420.111908,275.524963 421.830261,276.578125 
	C421.079193,277.590973 419.937561,278.150635 419.315521,279.064087 
	C412.524994,289.035919 400.740784,291.888123 391.635132,298.545074 
	C391.159393,298.892883 390.353333,298.788788 389.315430,298.921875 
	C387.773926,298.383514 386.618011,297.818390 385.221252,297.159637 
	C398.116272,293.195770 408.364349,285.303101 416.729797,274.222321 
z"/>
<path fill="#3A2D63" opacity="1.000000" stroke="none" 
	d="
M196.378433,500.768982 
	C195.735550,497.969971 195.097214,494.857941 195.073349,491.741241 
	C194.923233,472.144073 194.909744,452.545868 194.827515,432.481049 
	C195.092728,420.273132 195.381485,408.532196 195.789154,396.398499 
	C195.912445,418.466583 195.834305,440.927826 195.953964,463.388000 
	C196.019791,475.744171 196.418457,488.098602 196.378433,500.768982 
z"/>
<path fill="#282E7F" opacity="1.000000" stroke="none" 
	d="
M50.040459,77.416100 
	C52.851559,79.909317 55.790012,82.679268 58.568520,85.601303 
	C62.797123,90.048340 66.643921,94.899368 71.171127,99.007729 
	C74.408707,101.945747 76.733826,104.941277 76.914803,109.710800 
	C73.083900,106.104263 68.881485,102.427597 65.405441,98.159378 
	C60.041168,91.572609 55.174126,84.580887 50.040459,77.416100 
z"/>
<path fill="#231659" opacity="1.000000" stroke="none" 
	d="
M170.422058,557.897217 
	C169.996063,556.857849 170.040176,555.870483 170.398285,554.506836 
	C171.118378,554.124573 171.524445,554.118530 172.065430,554.230835 
	C172.821869,554.265747 173.443390,554.182312 174.510452,554.095215 
	C177.634186,554.070251 180.312378,554.049011 183.315887,554.145264 
	C185.430206,554.195496 187.219208,554.128235 189.405701,554.056030 
	C190.860352,553.998779 191.917480,553.946350 192.974640,553.893921 
	C193.962540,552.822754 194.950455,551.751526 196.052124,550.373901 
	C197.673096,555.989807 196.438354,557.864624 190.661362,557.953552 
	C184.073196,558.055054 177.482025,557.959229 170.422058,557.897217 
z"/>
<path fill="#282E7F" opacity="1.000000" stroke="none" 
	d="
M46.675339,64.150070 
	C45.896652,67.343025 48.166817,68.026855 50.671612,68.868103 
	C50.682003,71.382973 50.379478,73.797310 50.004570,76.604294 
	C47.544209,74.016830 45.001228,71.135254 42.964710,67.931717 
	C42.710533,67.531891 45.136765,65.428108 46.675339,64.150070 
z"/>
<path fill="#31397D" opacity="1.000000" stroke="none" 
	d="
M195.927292,330.333374 
	C195.811447,319.796448 195.706512,308.810730 195.729202,297.437714 
	C195.883957,307.995148 195.911087,318.939880 195.927292,330.333374 
z"/>
<path fill="#000084" opacity="1.000000" stroke="none" 
	d="
M195.893311,502.961670 
	C195.893311,502.961670 196.043320,502.542053 196.119263,502.332489 
	C196.458496,505.335999 196.909317,508.546814 196.947266,511.762573 
	C197.034592,519.164185 196.921127,526.568237 196.809418,534.424988 
	C196.458878,530.527100 196.188049,526.175537 195.924622,520.898804 
	C195.919128,514.303040 195.906219,508.632355 195.893311,502.961670 
z"/>
<path fill="#2C307E" opacity="1.000000" stroke="none" 
	d="
M502.656128,348.116760 
	C503.674957,347.996277 504.380463,347.999542 505.438293,348.004028 
	C503.426483,350.603241 501.062347,353.201172 498.371613,355.874573 
	C498.068420,354.263733 498.091797,352.577454 498.074829,350.582428 
	C499.470581,349.595947 500.906708,348.918213 502.656128,348.116760 
z"/>
<path fill="#31397D" opacity="1.000000" stroke="none" 
	d="
M386.129669,183.356827 
	C390.719971,183.108856 394.844391,184.423767 397.778259,188.858673 
	C394.028015,187.348007 390.137299,185.520233 386.129669,183.356827 
z"/>
<path fill="#2C307E" opacity="1.000000" stroke="none" 
	d="
M397.942139,189.304962 
	C398.104675,189.269424 398.352142,189.496323 398.778503,189.899170 
	C398.647278,189.905899 398.337189,189.736649 397.942139,189.304962 
z"/>
<path fill="#2C358B" opacity="1.000000" stroke="none" 
	d="
M121.389648,68.129021 
	C172.395676,67.573082 223.654434,67.132195 274.913666,67.067619 
	C301.367981,67.034294 327.823578,67.638687 354.276886,68.063255 
	C356.343719,68.096428 358.396790,68.984680 360.740845,69.716690 
	C283.435730,69.967094 205.845978,69.989395 128.256317,69.919044 
	C126.051277,69.917046 123.847137,68.928535 121.389648,68.129021 
z"/>
<path fill="#353E97" opacity="1.000000" stroke="none" 
	d="
M355.682617,179.685822 
	C293.642426,179.920731 231.323212,179.919754 168.546295,179.901978 
	C170.428299,179.262421 172.767029,178.100006 175.107834,178.095840 
	C232.979065,177.992920 290.850555,177.996567 348.721832,178.071213 
	C350.949677,178.074081 353.176361,178.970108 355.682617,179.685822 
z"/>
<path fill="#2C307E" opacity="1.000000" stroke="none" 
	d="
M475.894440,328.561066 
	C463.864868,317.273346 451.727478,305.678833 439.681030,293.990540 
	C438.543396,292.886719 437.977600,291.193573 437.059113,289.443237 
	C440.337585,292.026367 443.883301,294.759369 447.031097,297.892212 
	C453.389740,304.220642 459.244995,311.104858 467.942108,314.508362 
	C469.083710,314.955139 470.316071,315.958405 470.848175,317.030609 
	C472.661469,320.684418 474.180359,324.484344 475.894440,328.561066 
z"/>
<path fill="#2C307E" opacity="1.000000" stroke="none" 
	d="
M491.775269,343.676300 
	C488.375061,340.882965 484.851501,337.782379 481.204956,334.379639 
	C484.605316,337.174652 488.128601,340.271851 491.775269,343.676300 
z"/>
<path fill="#353E97" opacity="1.000000" stroke="none" 
	d="
M165.665436,179.655640 
	C163.912155,179.884476 161.923920,179.897705 159.512024,179.896698 
	C161.202408,179.735001 163.316437,179.587509 165.665436,179.655640 
z"/>
<path fill="#2C307E" opacity="1.000000" stroke="none" 
	d="
M478.679321,330.750366 
	C478.072357,330.458588 477.285095,329.945984 476.302429,329.229401 
	C476.904358,329.526794 477.701660,330.028168 478.679321,330.750366 
z"/>
<path fill="#311779" opacity="1.000000" stroke="none" 
	d="
M192.887146,553.496765 
	C191.917480,553.946350 190.860352,553.998779 189.082520,553.926636 
	C186.571411,553.877319 184.781006,553.952515 182.990585,554.027710 
	C180.312378,554.049011 177.634186,554.070251 174.154510,554.087830 
	C172.878860,554.093628 172.404678,554.103088 171.930511,554.112549 
	C171.524445,554.118530 171.118378,554.124573 170.409424,554.136353 
	C149.823639,554.088501 129.539902,554.125977 109.258247,553.937744 
	C100.794243,553.859192 92.334679,553.300598 83.437263,552.934937 
	C83.148872,516.804688 83.441704,480.699585 83.411995,444.594788 
	C83.358322,379.369659 83.111938,314.144653 82.932861,248.448120 
	C83.322021,242.523239 83.717751,237.069366 84.129036,231.616684 
	C84.401764,228.000916 86.644455,226.972488 89.931969,226.988113 
	C109.235146,227.079819 128.540024,226.982910 147.841461,227.202621 
	C158.288971,227.321518 168.743576,227.749512 179.168304,228.440445 
	C182.895309,228.687469 186.543854,230.118378 190.645508,231.026184 
	C191.373337,235.514969 191.949814,239.986252 191.954376,244.458115 
	C192.017670,306.661530 192.002686,368.865051 192.011108,431.538055 
	C192.009216,469.234283 191.983780,506.461060 192.031738,543.687683 
	C192.035797,546.825317 192.532074,549.962341 192.887146,553.496765 
z"/>
<path fill="#3A2D63" opacity="1.000000" stroke="none" 
	d="
M195.770691,503.357788 
	C195.906219,508.632355 195.919128,514.303040 195.896652,520.431396 
	C195.790222,515.177429 195.719162,509.465668 195.770691,503.357788 
z"/>
<path fill="#26146A" opacity="1.000000" stroke="none" 
	d="
M183.315887,554.145264 
	C184.781006,553.952515 186.571411,553.877319 188.685028,553.931519 
	C187.219208,554.128235 185.430206,554.195496 183.315887,554.145264 
z"/>
<path fill="#26146A" opacity="1.000000" stroke="none" 
	d="
M172.065430,554.230835 
	C172.404678,554.103088 172.878860,554.093628 173.708984,554.091553 
	C173.443390,554.182312 172.821869,554.265747 172.065430,554.230835 
z"/>
</svg>